# xmcd CD database file
#
# Track frame offsets:
#	150
#	23445
#	49087
#	73017
#	86650
#	109250
#	123270
#	140092
#	155362
#	175650
#
# Disc length: 2531 seconds
#
# Revision: 0
# Processed by: cddbd v1.4b41PL1 Copyright (c) Steve Scherf et al.
# Submitted via: Feurio! 1.61 - http://www.feurio.com
#
DISCID=7f09e10a
DTITLE=Family - It's Only A Movie
DYEAR=1900
DGENRE=
TTITLE0=It's Only A Movie
TTITLE1=Leroy
TTITLE2=Buffet Tea For Two
TTITLE3=Boom Bang
TTITLE4=q - Boots'N'Roots
TTITLE5=Banger
TTITLE6=Sweet Desire
TTITLE7=Suspicion
TTITLE8=Check Out
TTITLE9=Hometown
EXTD=
EXTT0=
EXTT1=
EXTT2=
EXTT3=
EXTT4=
EXTT5=
EXTT6=
EXTT7=
EXTT8=
EXTT9=
PLAYORDER=
